<svg version="1.0" xmlns="http://www.w3.org/2000/svg"
 width="622.000000pt" height="381.000000pt" viewBox="0 0 622.000000 381.000000"
 preserveAspectRatio="xMidYMid meet">
<g transform="translate(0.000000,381.000000) scale(0.100000,-0.100000)"
fill="currentColor" stroke="none">
<path d="M230 3577 l215 -216 950 -547 c523 -300 993 -571 1045 -601 l95 -54
-215 215 -215 214 -1023 591 c-562 325 -1032 595 -1045 602 -12 6 75 -86 193
-204z"/>
<path d="M5154 3190 l-1039 -601 -210 -211 c-164 -164 -200 -205 -165 -186 25
14 493 283 1040 598 l995 572 215 214 c118 118 212 214 209 214 -3 0 -473
-270 -1045 -600z"/>
<path d="M750 3007 l215 -216 1010 -581 c556 -320 1026 -591 1045 -602 19 -12
-62 76 -180 195 l-215 215 -1000 577 c-550 318 -1020 589 -1045 603 -35 19 3
-24 170 -191z"/>
<path d="M4635 2619 l-1040 -600 -215 -216 c-118 -118 -204 -208 -190 -200 14
8 484 279 1045 602 l1020 587 215 214 c118 118 213 214 210 214 -3 0 -473
-270 -1045 -601z"/>
<path d="M2581 2214 c30 -33 162 -172 292 -311 l236 -251 242 251 c327 340
358 373 329 356 -401 -242 -556 -332 -565 -332 -6 0 -130 72 -276 160 -333
202 -326 198 -258 127z"/>
<path d="M2280 1947 c8 -8 199 -155 424 -326 357 -272 411 -309 425 -298 9 8
192 148 406 312 215 164 397 305 405 313 18 17 22 20 -445 -252 -203 -119
-374 -216 -380 -216 -6 0 -199 108 -430 241 -231 132 -413 234 -405 226z"/>
<path d="M3043 1010 c-55 -33 -58 -46 -58 -260 0 -215 7 -250 56 -275 34 -18
108 -19 144 -3 44 20 58 61 63 186 l5 112 -67 0 -66 0 0 -35 c0 -29 4 -35 20
-35 19 0 21 -5 18 -77 -3 -77 -3 -78 -31 -81 -54 -6 -57 4 -57 195 0 101 4
182 10 194 12 22 52 25 68 6 6 -7 12 -33 14 -57 l3 -45 40 0 40 0 -2 57 c-1
31 -7 67 -13 78 -30 56 -127 77 -187 40z"/>
<path d="M5223 1014 c-56 -28 -63 -59 -63 -274 0 -150 3 -197 15 -220 23 -45
53 -60 118 -60 54 0 62 3 93 34 l34 34 0 206 c0 168 -3 213 -16 237 -27 54
-116 75 -181 43z m107 -83 c6 -12 10 -92 10 -190 0 -158 -2 -173 -20 -191 -24
-24 -30 -24 -56 -6 -17 13 -19 30 -22 186 -3 144 -1 175 13 196 19 29 60 32
75 5z"/>
<path d="M360 739 l0 -281 94 4 c164 6 179 32 174 298 -4 245 -15 260 -178
260 l-90 0 0 -281z m168 189 c15 -15 17 -340 2 -369 -8 -14 -21 -19 -50 -19
l-40 0 0 200 0 200 38 0 c21 0 43 -5 50 -12z"/>
<path d="M780 740 l0 -280 45 0 45 0 0 115 0 115 29 0 c50 0 61 -21 61 -115 0
-109 3 -115 54 -115 l41 0 -5 108 c-5 107 -22 162 -52 162 -6 0 1 11 14 25 57
57 49 205 -13 249 -18 12 -47 16 -121 16 l-98 0 0 -280z m168 188 c7 -7 12
-38 12 -69 0 -66 -16 -89 -61 -89 l-29 0 0 85 0 85 33 0 c18 0 38 -5 45 -12z"/>
<path d="M1210 740 l0 -280 120 0 120 0 0 40 0 40 -80 0 -81 0 3 83 3 82 63 3
63 3 -3 37 -3 37 -62 3 -63 3 0 74 0 74 78 3 77 3 3 38 3 37 -120 0 -121 0 0
-280z"/>
<path d="M1666 998 c-5 -23 -86 -526 -86 -534 0 -2 18 -4 40 -4 l39 0 7 50 7
50 58 0 c58 0 59 -1 59 -27 0 -62 9 -73 55 -73 36 0 42 3 39 18 -2 9 -22 135
-45 280 l-42 262 -63 0 c-58 0 -64 -2 -68 -22z m83 -198 c6 -47 14 -102 17
-122 l7 -38 -42 0 c-26 0 -41 5 -41 13 0 40 34 246 40 240 4 -4 12 -46 19 -93z"/>
<path d="M2030 740 l0 -280 35 0 35 0 0 187 c0 102 2 184 5 181 5 -5 65 -338
65 -361 0 -5 19 -7 42 -5 l42 3 27 178 c15 97 30 183 32 190 3 6 6 -75 6 -180
l1 -193 40 0 40 0 0 280 0 281 -62 -3 -62 -3 -27 -178 c-15 -97 -29 -183 -31
-189 -3 -7 -17 64 -32 158 -39 238 -28 214 -97 214 l-59 0 0 -280z"/>
<path d="M2626 993 c-3 -16 -21 -129 -41 -253 -19 -124 -38 -237 -41 -252 -5
-27 -4 -28 34 -28 43 0 52 13 52 73 0 26 1 27 59 27 l58 0 7 -50 7 -50 44 0
c43 0 44 1 40 28 -8 41 -85 522 -85 527 0 3 -29 5 -64 5 -62 0 -65 -1 -70 -27z
m104 -335 c0 -14 -8 -18 -40 -18 -22 0 -40 4 -40 10 0 21 31 226 37 240 5 13
42 -186 43 -232z"/>
<path d="M3400 740 l0 -280 45 0 45 0 0 280 0 280 -45 0 -45 0 0 -280z"/>
<path d="M3660 740 l0 -280 35 0 35 0 0 198 c0 108 4 191 9 184 4 -7 30 -96
57 -198 l49 -184 42 0 43 0 0 280 0 280 -35 0 -35 0 -1 -162 c0 -103 -3 -155
-9 -141 -5 12 -25 85 -46 162 l-37 141 -53 0 -54 0 0 -280z"/>
<path d="M4122 747 c-23 -149 -43 -275 -42 -279 0 -5 17 -8 39 -8 l38 0 7 50
7 50 54 0 c59 0 59 -1 67 -70 3 -22 9 -25 46 -28 23 -2 42 0 42 5 1 4 -18 131
-42 281 l-43 272 -65 0 -65 0 -43 -273z m123 52 c8 -57 18 -116 21 -131 5 -27
4 -28 -40 -28 -43 0 -46 2 -41 23 6 27 35 223 35 239 0 36 11 -11 25 -103z"/>
<path d="M4500 980 l0 -40 45 0 45 0 0 -240 0 -240 45 0 45 0 0 240 0 240 45
0 45 0 0 40 0 40 -135 0 -135 0 0 -40z"/>
<path d="M4910 740 l0 -280 45 0 45 0 0 280 0 280 -45 0 -45 0 0 -280z"/>
<path d="M5580 740 l0 -280 40 0 40 0 2 198 3 197 23 -85 c12 -47 37 -136 54
-197 l30 -113 44 0 44 0 0 280 0 280 -40 0 -40 0 -1 -157 -1 -158 -42 155 -42
155 -57 3 -57 3 0 -281z"/>
<path d="M2796 259 c-25 -20 -26 -25 -26 -118 0 -84 3 -100 20 -119 26 -27 64
-28 90 -2 17 17 20 33 20 119 0 96 -1 100 -26 120 -15 12 -32 21 -39 21 -7 0
-24 -9 -39 -21z m59 -119 c0 -88 -1 -95 -20 -95 -18 0 -20 8 -23 84 -3 96 1
114 25 109 16 -3 18 -16 18 -98z"/>
<path d="M3300 260 c-17 -17 -20 -33 -20 -120 0 -87 3 -103 20 -120 28 -28 64
-25 89 6 18 23 21 41 21 116 0 81 -2 91 -25 113 -29 30 -58 32 -85 5z m58 -32
c18 -18 16 -162 -3 -178 -26 -22 -35 0 -35 89 0 100 8 119 38 89z"/>
<path d="M3950 260 c-17 -17 -20 -33 -20 -120 0 -87 3 -103 20 -120 27 -27 56
-25 85 5 31 30 34 75 5 75 -13 0 -20 -7 -20 -19 0 -22 -25 -45 -40 -36 -6 3
-10 44 -10 95 0 51 4 92 10 95 15 9 40 -14 40 -37 0 -27 34 -19 38 9 4 27 -38
73 -68 73 -11 0 -29 -9 -40 -20z"/>
<path d="M1160 263 c0 -5 -9 -60 -20 -123 -24 -142 -24 -140 0 -140 13 0 20 7
20 19 0 32 11 51 30 51 19 0 30 -19 30 -51 0 -12 7 -19 20 -19 24 0 24 -2 0
140 -11 63 -20 118 -20 123 0 4 -13 7 -30 7 -16 0 -30 -3 -30 -7z m40 -118 c0
-19 -4 -35 -10 -35 -5 0 -10 16 -10 35 0 19 5 35 10 35 6 0 10 -16 10 -35z"/>
<path d="M1382 138 l3 -133 58 -3 c51 -3 57 -1 57 17 0 16 -8 20 -37 23 -36 3
-38 5 -41 41 -3 35 -2 37 27 37 24 0 31 4 31 20 0 16 -7 20 -31 20 -29 0 -30
2 -27 38 3 35 5 37 41 40 24 2 37 8 37 18 0 11 -14 14 -60 14 l-61 0 3 -132z"/>
<path d="M1612 138 c3 -117 5 -133 21 -136 14 -3 17 4 17 47 0 81 32 80 46 -2
3 -21 12 -41 20 -44 27 -10 32 7 17 63 -10 40 -11 60 -4 67 14 14 14 92 1 118
-9 15 -22 19 -66 19 l-55 0 3 -132z m88 52 c0 -36 -2 -40 -25 -40 -22 0 -25 4
-25 40 0 36 3 40 25 40 23 0 25 -4 25 -40z"/>
<path d="M1870 135 c0 -128 1 -135 20 -135 19 0 20 7 20 135 0 128 -1 135 -20
135 -19 0 -20 -7 -20 -135z"/>
<path d="M2056 158 c-9 -62 -20 -123 -23 -135 -4 -18 -1 -23 15 -23 16 0 23 8
28 36 5 28 10 35 28 32 14 -2 22 -12 26 -33 3 -18 12 -31 23 -33 21 -4 22 14
2 133 -24 139 -22 135 -53 135 -28 0 -28 0 -46 -112z m57 -5 c4 -33 2 -43 -9
-43 -15 0 -17 12 -8 59 8 39 10 37 17 -16z"/>
<path d="M2300 134 l0 -135 52 3 c41 2 54 7 56 20 3 15 -4 18 -32 18 l-36 0 0
115 c0 108 -1 115 -20 115 -19 0 -20 -7 -20 -136z"/>
<path d="M2520 135 c0 -128 1 -135 20 -135 18 0 20 7 20 55 0 73 22 74 41 3
10 -37 20 -54 33 -56 17 -4 18 0 11 39 -9 47 -9 65 1 145 8 66 -8 84 -77 84
l-49 0 0 -135z m88 58 c-2 -31 -7 -39 -25 -41 -21 -3 -23 1 -23 37 0 37 2 41
26 41 23 0 25 -3 22 -37z"/>
<path d="M3020 135 l0 -135 38 0 c79 0 121 55 89 118 -9 18 -11 35 -6 43 15
24 10 75 -9 92 -12 11 -36 17 -65 17 l-47 0 0 -135z m88 69 c3 -23 -21 -49
-38 -39 -5 3 -10 20 -10 36 0 26 3 30 23 27 13 -2 23 -11 25 -24z m-14 -80
c22 -8 22 -70 0 -78 -24 -9 -34 2 -34 38 0 43 7 50 34 40z"/>
<path d="M3520 254 c0 -9 9 -18 20 -21 18 -5 20 -15 22 -116 3 -97 5 -112 21
-115 15 -3 17 7 17 112 0 111 1 115 22 118 13 2 24 11 26 21 3 15 -5 17 -62
17 -54 0 -66 -3 -66 -16z"/>
<path d="M3770 134 c0 -124 2 -135 18 -132 15 3 17 19 20 136 2 127 2 132 -18
132 -19 0 -20 -6 -20 -136z"/>
<path d="M4170 250 c0 -13 7 -20 20 -20 18 0 20 -8 22 -112 3 -98 5 -113 21
-116 15 -3 17 7 17 112 0 111 1 115 22 118 13 2 24 11 26 21 3 15 -5 17 -62
17 -59 0 -66 -2 -66 -20z"/>
<path d="M4420 135 l0 -135 55 0 c48 0 55 2 55 20 0 16 -7 20 -35 20 -34 0
-35 1 -35 40 0 36 3 40 25 40 18 0 25 5 25 20 0 15 -7 20 -25 20 -22 0 -25 4
-25 40 0 39 1 40 35 40 24 0 35 5 35 15 0 12 -13 15 -55 15 l-55 0 0 -135z"/>
<path d="M4690 268 c0 -2 -9 -55 -20 -118 -25 -143 -25 -152 -3 -148 11 2 20
15 23 33 4 21 12 31 27 33 18 3 23 -3 29 -32 5 -27 11 -36 26 -36 17 0 20 5
15 28 -3 15 -13 75 -23 135 -17 107 -17 107 -45 107 -16 0 -29 -1 -29 -2z m40
-130 c0 -16 -5 -28 -13 -28 -9 0 -11 12 -9 41 5 46 22 35 22 -13z"/>
<path d="M4912 138 c3 -117 5 -133 21 -136 15 -3 17 6 18 80 l1 83 21 -80 c29
-105 46 -107 69 -5 l16 75 1 -77 c1 -71 3 -78 21 -78 19 0 20 7 20 135 l0 135
-29 0 c-28 0 -29 -2 -41 -77 -6 -43 -15 -84 -19 -91 -4 -7 -13 22 -20 64 -17
101 -18 104 -52 104 l-30 0 3 -132z"/>
</g>
</svg>
