<svg version="1.0" xmlns="http://www.w3.org/2000/svg"
 width="507.000000pt" height="633.000000pt" viewBox="0 0 507.000000 633.000000"
 preserveAspectRatio="xMidYMid meet">

<g transform="translate(0.000000,633.000000) scale(0.100000,-0.100000)"
fill="#FFFFFF" stroke="none">
<path d="M450 6289 c0 -17 11 -86 24 -153 14 -66 39 -200 56 -296 39 -219 46
-242 84 -278 17 -17 306 -206 641 -422 l610 -391 6 148 c4 81 7 183 8 225 l1
77 30 -10 c27 -10 100 -53 470 -277 74 -45 143 -82 154 -82 11 0 146 76 300
169 299 179 345 205 352 198 3 -2 8 -104 11 -226 l6 -221 56 31 c85 48 417
260 833 533 243 159 379 255 390 273 17 29 26 69 79 358 56 307 66 370 58 373
-11 5 -183 -64 -634 -253 -220 -93 -485 -203 -588 -246 -104 -42 -214 -94
-245 -114 -31 -21 -106 -88 -167 -151 -102 -105 -122 -120 -265 -204 -103 -60
-164 -90 -185 -90 -20 0 -83 31 -189 93 -123 71 -172 106 -215 152 -177 190
-228 226 -417 299 -49 18 -251 102 -449 186 -361 152 -750 312 -792 325 -21 6
-23 3 -23 -26z"/>
<path d="M783 5129 c4 -112 14 -458 22 -769 8 -311 19 -700 25 -865 6 -165 12
-348 13 -407 3 -105 4 -107 38 -147 156 -182 382 -431 391 -431 8 0 10 253 5
915 -5 776 -3 915 8 915 17 0 79 -47 690 -525 l480 -375 6 247 c3 137 7 427 8
645 l1 397 -34 28 c-35 28 -416 255 -448 266 -17 6 -18 -10 -18 -248 0 -140
-4 -255 -8 -255 -13 0 -370 243 -787 536 -204 143 -377 264 -384 269 -12 7
-13 -23 -8 -196z"/>
<path d="M4160 5237 c-69 -46 -282 -195 -475 -332 -335 -238 -565 -395 -579
-395 -3 0 -6 115 -6 255 0 175 -3 255 -11 255 -24 0 -467 -267 -477 -288 -11
-21 -16 -1152 -7 -1239 l8 -62 44 32 c53 37 520 404 838 658 121 96 237 188
258 203 l37 28 0 -349 c0 -558 13 -1493 20 -1493 14 0 410 460 414 482 7 30
69 2265 64 2301 l-3 28 -125 -84z"/>
<path d="M1455 3838 c-4 -117 -3 -503 2 -858 l8 -645 325 -263 c338 -274 638
-513 703 -559 47 -33 47 -33 207 96 152 124 496 401 720 581 91 73 169 139
174 148 5 8 11 393 14 859 4 698 3 843 -8 843 -19 0 -157 -106 -535 -413 -399
-325 -523 -420 -540 -413 -8 3 -248 192 -534 420 -287 229 -523 416 -525 416
-2 0 -7 -96 -11 -212z"/>
<path d="M4608 1371 c-73 -24 -128 -76 -142 -136 -8 -31 -10 -424 -2 -432 2
-2 36 12 75 31 l71 36 0 70 0 70 150 0 150 0 0 -70 0 -70 75 0 75 0 0 185 c0
201 -3 216 -57 267 -15 15 -40 31 -54 36 -35 14 -308 24 -341 13z m302 -176
l0 -65 -150 0 -150 0 0 28 c0 15 3 44 6 65 l7 37 143 0 144 0 0 -65z"/>
<path d="M10 1085 c0 -224 3 -285 13 -285 7 0 40 17 75 37 l62 37 0 84 0 84
144 -3 c99 -3 148 -8 159 -17 10 -9 18 -39 23 -83 l7 -69 72 0 72 0 7 49 c8
59 -4 92 -50 143 l-35 39 35 50 c20 27 36 54 36 59 0 6 -23 44 -50 85 l-51 75
-259 0 -260 0 0 -285z m435 163 c18 -8 25 -19 25 -39 0 -48 -30 -59 -155 -59
-150 0 -155 2 -155 54 0 24 3 46 7 49 11 12 250 8 278 -5z"/>
<path d="M783 1316 l-58 -54 -3 -117 c-5 -143 9 -188 71 -237 l41 -33 180 -3
c100 -2 196 -1 214 3 42 8 108 66 121 108 13 37 16 93 13 197 l-2 76 -54 57
-55 57 -205 0 -205 0 -58 -54z m425 -193 l3 -133 -172 0 -171 0 6 23 c3 12 6
73 6 135 l0 112 163 -2 162 -3 3 -132z"/>
<path d="M1468 1128 c-3 -134 -4 -246 -1 -250 2 -5 121 -8 263 -8 l259 0 39
53 c75 102 74 99 52 132 -11 17 -25 37 -31 46 -9 12 -6 24 15 57 14 23 26 50
26 59 0 10 -23 48 -50 86 l-50 67 -259 0 -258 0 -5 -242z m433 122 c19 -11 24
-35 13 -64 -5 -14 -28 -16 -150 -16 l-144 0 0 45 0 45 131 0 c72 0 139 -5 150
-10z m-4 -186 c26 -7 35 -37 19 -60 -15 -19 -151 -31 -240 -20 l-56 7 0 40 0
39 128 0 c70 0 137 -3 149 -6z"/>
<path d="M2300 1353 c-92 -61 -115 -118 -108 -268 3 -74 7 -88 33 -126 60 -85
73 -89 282 -89 208 0 228 5 284 67 35 39 36 41 42 150 8 131 0 164 -50 216
-64 65 -72 67 -275 67 -154 0 -188 -3 -208 -17z m378 -230 l3 -133 -166 0
-165 0 0 135 0 135 163 -2 162 -3 3 -132z"/>
<path d="M2830 1360 c0 -20 62 -79 93 -89 18 -5 58 -13 90 -17 l57 -6 0 -224
c0 -157 3 -224 11 -224 16 0 111 49 131 67 15 14 18 40 20 202 l3 186 73 5
c71 5 75 6 113 47 21 23 39 47 39 53 0 7 -104 10 -315 10 -196 0 -315 -4 -315
-10z"/>
<path d="M3550 1085 c0 -192 3 -285 10 -285 16 0 70 29 108 57 l32 24 0 245 0
244 -75 0 -75 0 0 -285z"/>
<path d="M3805 1215 c-4 -85 -4 -215 0 -289 l7 -134 67 36 c77 42 81 46 81 92
0 30 10 44 70 102 39 38 76 68 81 68 21 0 87 -60 103 -94 9 -19 16 -55 16 -80
l0 -47 73 3 72 3 3 49 c5 77 -4 94 -91 183 l-81 83 87 82 c48 44 87 85 87 89
0 5 -36 9 -80 9 -91 0 -82 5 -245 -149 l-90 -86 -3 118 -3 117 -73 0 -74 0 -7
-155z"/>
<path d="M1510 451 c0 -241 3 -254 72 -317 l44 -41 155 -5 c194 -7 239 3 291
62 46 51 50 77 46 280 l-3 155 -71 3 -72 3 -3 -185 c-2 -101 -8 -188 -12 -193
-5 -4 -71 -10 -148 -11 l-139 -4 0 194 0 193 -56 33 c-31 17 -67 35 -80 38
l-24 6 0 -211z"/>
<path d="M2233 584 c-10 -4 -13 -72 -13 -290 l0 -284 75 37 75 37 0 138 c0 76
3 138 8 138 4 0 83 -61 176 -135 l169 -135 58 0 59 0 0 250 0 250 -75 0 -75 0
0 -140 c0 -111 -3 -140 -14 -140 -7 0 -70 48 -140 108 -178 150 -194 161 -246
167 -25 2 -51 2 -57 -1z"/>
<path d="M2940 569 c6 -11 63 -71 126 -133 l114 -112 0 -157 c0 -86 3 -157 6
-157 4 0 38 17 75 37 l69 37 0 111 c0 131 -7 119 148 272 56 55 102 106 102
112 0 7 -27 11 -73 11 -83 0 -92 -5 -168 -85 -74 -79 -79 -79 -158 -2 -36 36
-76 70 -88 76 -12 6 -54 11 -93 11 -68 0 -70 -1 -60 -21z"/>
</g>
</svg>
